# xmcd
#
# Track frame offsets:
#	150
#	15991
#	37356
#	56031
#	72612
#	90955
#	103574
#	122611
#	139955
#	154374
#
# Disc length: 2275 seconds
#
# Revision: 1
# Processed by: cddbd v1.5.2PL0 Copyright (c) Steve Scherf et al.
# Submitted via: EasyCDDAExtractor 15.1.0.1
#
DISCID=8a08e10a
DTITLE=แพรวา พัชรี - ปริศนาอักษรใจ
DYEAR=2011
DGENRE=Country
TTITLE0=ปริศนาอักษรใจ
TTITLE1=เริ่มที่เพื่อน..จบที่เพื่อน
TTITLE2=อยู่ได้..แต่เหงา
TTITLE3=ก็รักหมดใจไปแล้ว (นี่หว่า)
TTITLE4=อะไรก็ฉัน
TTITLE5=เมื่อไหร่จะรักสักที
TTITLE6=มีแฟนใหม่มันไม่ง่ายสำหรับฉัน
TTITLE7=รักนะ จุ๊บๆ
TTITLE8=คนอยู่ไกลคิดถึงไหมน้อ
TTITLE9=1 2 3 4 รักแล้วรอหน่อย
EXTD=
EXTT0=
EXTT1=
EXTT2=
EXTT3=
EXTT4=
EXTT5=
EXTT6=
EXTT7=
EXTT8=
EXTT9=
PLAYORDER=
